<?xml version="1.0" encoding="UTF-8"?>
<svg width="669px" height="77px" viewBox="0 0 669 77" version="1.1" xmlns="http://www.w3.org/2000/svg" xmlns:xlink="http://www.w3.org/1999/xlink">
    <!-- Generator: Sketch 61.2 (89653) - https://sketch.com -->
    <title>⟁␥⎆⌾⍚⏅⍚⌾⎆␥⟁</title>
    <desc>Created with Sketch.</desc>
    <g id="Page-1" stroke="none" stroke-width="1" fill="none" fill-rule="evenodd">
        <path d="M63.3164062,67 L31.9960938,13.4140625 L0.75,67 L63.3164062,67 Z M59.4199219,64.8105469 L4.64648438,64.8105469 L31.9960938,17.8300781 L59.4199219,64.8105469 Z M44.7617188,56.9804688 L31.9960938,33.0820312 L19.3046875,56.9804688 L44.7617188,56.9804688 Z M40.8652344,54.7910156 L23.2011719,54.7910156 L31.9960938,37.4980469 L40.8652344,54.7910156 Z M75.4511719,63.9570312 L111.076172,28.4804688 L108.330078,25.6972656 L72.8164062,61.2851562 L75.4511719,63.9570312 Z M75.4511719,53.4550781 L100.574219,28.4804688 L97.8652344,25.6972656 L72.8164062,50.7832031 L75.4511719,53.4550781 Z M85.953125,63.9570312 L111.076172,38.9824219 L108.330078,36.1992188 L83.3183594,61.2851562 L85.953125,63.9570312 Z M154.791016,67.0371094 L178.429688,43.3242188 L154.791016,19.7226562 L135.976562,38.6484375 L120.613281,38.6484375 L120.576172,48.2597656 L135.976562,48.2226562 L154.791016,67.0371094 Z M154.828125,62.6582031 L140.318359,48.2226562 L150.746094,48.1855469 L150.746094,56.015625 L162.212891,43.3984375 L150.820312,31.0039062 L150.746094,38.6484375 L140.169922,38.6484375 L154.753906,24.0273438 L174.087891,43.4355469 L154.828125,62.6582031 Z M153.195312,49.7070312 L153.158203,45.7734375 L123.025391,45.8476562 L122.951172,41.1347656 L153.009766,41.171875 L153.083984,37.1269531 L159.132812,43.3613281 L153.195312,49.7070312 Z M211.568359,66.8515625 C218.223307,66.8515625 223.857747,64.5507812 228.47168,59.9492188 C233.085612,55.3476562 235.392578,49.7317708 235.392578,43.1015625 C235.392578,36.4960938 233.073242,30.898763 228.43457,26.3095703 C223.795898,21.7203776 218.136719,19.4257812 211.457031,19.4257812 C208.240885,19.4257812 205.02474,20.1617839 201.808594,21.6337891 C198.592448,23.1057943 195.945312,25.0416667 193.867188,27.4414062 C189.908854,32.0182292 187.929688,37.4733073 187.929688,43.8066406 C187.929688,46.8990885 188.696615,50.0224609 190.230469,53.1767578 C191.764323,56.3310547 193.792969,58.9967448 196.316406,61.1738281 C200.794271,64.9589844 205.878255,66.8515625 211.568359,66.8515625 Z M211.53125,63.6230469 C205.964844,63.6230469 201.171549,61.6005859 197.151367,57.5556641 C193.131185,53.5107422 191.121094,48.6927083 191.121094,43.1015625 C191.121094,37.3619792 193.125,32.5192057 197.132812,28.5732422 C201.140625,24.6272786 206.063802,22.6542969 211.902344,22.6542969 C217.617188,22.6542969 222.435221,24.6705729 226.356445,28.703125 C230.277669,32.7356771 232.238281,37.6835938 232.238281,43.546875 C232.238281,49.0143229 230.197266,53.7272135 226.115234,57.6855469 C222.033203,61.6438802 217.171875,63.6230469 211.53125,63.6230469 Z M212.013672,52.6386719 C214.611328,52.6386719 216.85026,51.6861979 218.730469,49.78125 C220.610677,47.8763021 221.550781,45.5878906 221.550781,42.9160156 C221.550781,40.343099 220.598307,38.0979818 218.693359,36.1806641 C216.788411,34.2633464 214.561849,33.3046875 212.013672,33.3046875 C209.317057,33.3046875 206.997721,34.2695312 205.055664,36.1992188 C203.113607,38.1289062 202.142578,40.4296875 202.142578,43.1015625 C202.142578,45.7981771 203.088867,48.061849 204.981445,49.8925781 C206.874023,51.7233073 209.218099,52.6386719 212.013672,52.6386719 Z M211.976562,49.8925781 C209.972656,49.8925781 208.290365,49.2369792 206.929688,47.9257812 C205.56901,46.6145833 204.888672,44.9941406 204.888672,43.0644531 C204.888672,41.1347656 205.56901,39.4895833 206.929688,38.1289062 C208.290365,36.7682292 209.935547,36.0878906 211.865234,36.0878906 C213.819661,36.0878906 215.464844,36.7558594 216.800781,38.0917969 C218.136719,39.4277344 218.804688,41.0605469 218.804688,42.9902344 C218.804688,44.9199219 218.142904,46.5527344 216.819336,47.8886719 C215.495768,49.2246094 213.88151,49.8925781 211.976562,49.8925781 Z M268.457031,67.0371094 L292.095703,43.3242188 L268.457031,19.7226562 L244.892578,43.4355469 L268.457031,67.0371094 Z M268.494141,62.6582031 L249.123047,43.3984375 L268.419922,24.0273438 L287.753906,43.4355469 L268.494141,62.6582031 Z M284.673828,76.1289062 L284.673828,72.2695312 L252.945312,72.2695312 L252.945312,76.1289062 L284.673828,76.1289062 Z M372.845703,76.12 L372.845703,72.852 L336.365703,72.852 L336.365703,63.124 L366.309703,63.124 L336.365703,11.9 L336.365703,0.12 L333.325703,0.12 L333.325703,11.9 L303.381703,63.124 L333.325703,63.124 L333.325703,72.852 L296.845703,72.852 L296.845703,76.12 L372.845703,76.12 Z M333.325703,60.16 L308.701703,60.16 L333.325703,17.524 L333.325703,60.16 Z M360.989703,60.16 L336.365703,60.16 L336.365703,17.524 L360.989703,60.16 Z M401.160156,67.0371094 L424.798828,43.3242188 L401.160156,19.7226562 L377.595703,43.4355469 L401.160156,67.0371094 Z M401.197266,62.6582031 L381.826172,43.3984375 L401.123047,24.0273438 L420.457031,43.4355469 L401.197266,62.6582031 Z M417.376953,76.1289062 L417.376953,72.2695312 L385.648438,72.2695312 L385.648438,76.1289062 L417.376953,76.1289062 Z M457.9375,66.8515625 C464.592448,66.8515625 470.226888,64.5507812 474.84082,59.9492188 C479.454753,55.3476562 481.761719,49.7317708 481.761719,43.1015625 C481.761719,36.4960938 479.442383,30.898763 474.803711,26.3095703 C470.165039,21.7203776 464.505859,19.4257812 457.826172,19.4257812 C454.610026,19.4257812 451.39388,20.1617839 448.177734,21.6337891 C444.961589,23.1057943 442.314453,25.0416667 440.236328,27.4414062 C436.277995,32.0182292 434.298828,37.4733073 434.298828,43.8066406 C434.298828,46.8990885 435.065755,50.0224609 436.599609,53.1767578 C438.133464,56.3310547 440.162109,58.9967448 442.685547,61.1738281 C447.163411,64.9589844 452.247396,66.8515625 457.9375,66.8515625 Z M457.900391,63.6230469 C452.333984,63.6230469 447.54069,61.6005859 443.520508,57.5556641 C439.500326,53.5107422 437.490234,48.6927083 437.490234,43.1015625 C437.490234,37.3619792 439.494141,32.5192057 443.501953,28.5732422 C447.509766,24.6272786 452.432943,22.6542969 458.271484,22.6542969 C463.986328,22.6542969 468.804362,24.6705729 472.725586,28.703125 C476.64681,32.7356771 478.607422,37.6835938 478.607422,43.546875 C478.607422,49.0143229 476.566406,53.7272135 472.484375,57.6855469 C468.402344,61.6438802 463.541016,63.6230469 457.900391,63.6230469 Z M458.382812,52.6386719 C460.980469,52.6386719 463.219401,51.6861979 465.099609,49.78125 C466.979818,47.8763021 467.919922,45.5878906 467.919922,42.9160156 C467.919922,40.343099 466.967448,38.0979818 465.0625,36.1806641 C463.157552,34.2633464 460.93099,33.3046875 458.382812,33.3046875 C455.686198,33.3046875 453.366862,34.2695312 451.424805,36.1992188 C449.482747,38.1289062 448.511719,40.4296875 448.511719,43.1015625 C448.511719,45.7981771 449.458008,48.061849 451.350586,49.8925781 C453.243164,51.7233073 455.58724,52.6386719 458.382812,52.6386719 Z M458.345703,49.8925781 C456.341797,49.8925781 454.659505,49.2369792 453.298828,47.9257812 C451.938151,46.6145833 451.257812,44.9941406 451.257812,43.0644531 C451.257812,41.1347656 451.938151,39.4895833 453.298828,38.1289062 C454.659505,36.7682292 456.304688,36.0878906 458.234375,36.0878906 C460.188802,36.0878906 461.833984,36.7558594 463.169922,38.0917969 C464.505859,39.4277344 465.173828,41.0605469 465.173828,42.9902344 C465.173828,44.9199219 464.512044,46.5527344 463.188477,47.8886719 C461.864909,49.2246094 460.250651,49.8925781 458.345703,49.8925781 Z M525.476562,67.0371094 L549.115234,43.3242188 L525.476562,19.7226562 L506.662109,38.6484375 L491.298828,38.6484375 L491.261719,48.2597656 L506.662109,48.2226562 L525.476562,67.0371094 Z M525.513672,62.6582031 L511.003906,48.2226562 L521.431641,48.1855469 L521.431641,56.015625 L532.898438,43.3984375 L521.505859,31.0039062 L521.431641,38.6484375 L510.855469,38.6484375 L525.439453,24.0273438 L544.773438,43.4355469 L525.513672,62.6582031 Z M523.880859,49.7070312 L523.84375,45.7734375 L493.710938,45.8476562 L493.636719,41.1347656 L523.695312,41.171875 L523.769531,37.1269531 L529.818359,43.3613281 L523.880859,49.7070312 Z M561.25,63.9570312 L596.875,28.4804688 L594.128906,25.6972656 L558.615234,61.2851562 L561.25,63.9570312 Z M561.25,53.4550781 L586.373047,28.4804688 L583.664062,25.6972656 L558.615234,50.7832031 L561.25,53.4550781 Z M571.751953,63.9570312 L596.875,38.9824219 L594.128906,36.1992188 L569.117188,61.2851562 L571.751953,63.9570312 Z M668.941406,67 L637.621094,13.4140625 L606.375,67 L668.941406,67 Z M665.044922,64.8105469 L610.271484,64.8105469 L637.621094,17.8300781 L665.044922,64.8105469 Z M650.386719,56.9804688 L637.621094,33.0820312 L624.929688,56.9804688 L650.386719,56.9804688 Z M646.490234,54.7910156 L628.826172,54.7910156 L637.621094,37.4980469 L646.490234,54.7910156 Z" id="⟁␥⎆⌾⍚⏅⍚⌾⎆␥⟁" fill="#FFFFFF" fill-rule="nonzero"></path>
    </g>
</svg>